<svg width="580" height="271" viewBox="0 0 580 271" fill="none" xmlns="http://www.w3.org/2000/svg">
<path d="M561.906 255C557.64 255 553.906 254.093 550.706 252.28C547.506 250.467 545 247.987 543.186 244.84C541.426 241.64 540.546 237.96 540.546 233.8C540.546 229.16 541.453 225.213 543.266 221.96C545.133 218.653 547.533 216.147 550.466 214.44C553.453 212.68 556.6 211.8 559.906 211.8C562.36 211.8 564.733 212.253 567.026 213.16C569.32 214.067 571.346 215.4 573.106 217.16C574.866 218.867 576.28 220.947 577.346 223.4C578.413 225.8 578.973 228.493 579.026 231.48C579.026 232.333 578.706 233.053 578.066 233.64C577.426 234.227 576.68 234.52 575.826 234.52H544.226L542.786 229H573.586L572.306 230.12V228.36C572.093 226.173 571.346 224.307 570.066 222.76C568.84 221.16 567.32 219.933 565.506 219.08C563.746 218.227 561.88 217.8 559.906 217.8C558.306 217.8 556.706 218.093 555.106 218.68C553.56 219.213 552.146 220.12 550.866 221.4C549.64 222.627 548.626 224.227 547.826 226.2C547.08 228.173 546.706 230.547 546.706 233.32C546.706 236.413 547.32 239.133 548.546 241.48C549.826 243.827 551.586 245.693 553.826 247.08C556.066 248.413 558.68 249.08 561.666 249.08C563.533 249.08 565.16 248.84 566.546 248.36C567.933 247.88 569.133 247.293 570.146 246.6C571.16 245.853 572.013 245.107 572.706 244.36C573.4 243.88 574.066 243.64 574.706 243.64C575.506 243.64 576.146 243.907 576.626 244.44C577.16 244.973 577.426 245.613 577.426 246.36C577.426 247.267 577 248.067 576.146 248.76C574.653 250.413 572.626 251.88 570.066 253.16C567.506 254.387 564.786 255 561.906 255Z" fill="black"/>
<path d="M511.396 211.8C513.69 211.8 515.823 212.2 517.796 213C519.77 213.747 521.476 214.733 522.916 215.96C524.41 217.187 525.556 218.467 526.356 219.8C527.21 221.133 527.636 222.387 527.636 223.56L526.116 222.6V215.64C526.116 214.733 526.41 213.987 526.996 213.4C527.583 212.76 528.356 212.44 529.316 212.44C530.223 212.44 530.97 212.76 531.556 213.4C532.196 213.987 532.516 214.733 532.516 215.64V250.68C532.516 255.053 531.583 258.68 529.716 261.56C527.903 264.44 525.45 266.6 522.356 268.04C519.263 269.48 515.796 270.2 511.956 270.2C510.356 270.2 508.596 269.987 506.676 269.56C504.756 269.133 503.05 268.6 501.556 267.96C500.063 267.373 499.103 266.76 498.676 266.12C497.876 265.587 497.37 264.973 497.156 264.28C496.996 263.64 497.13 263.027 497.556 262.44C498.036 261.693 498.65 261.32 499.396 261.32C500.196 261.32 501.183 261.56 502.356 262.04C502.836 262.2 503.583 262.467 504.596 262.84C505.663 263.213 506.836 263.533 508.116 263.8C509.45 264.12 510.756 264.28 512.036 264.28C516.57 264.28 520.036 263.08 522.436 260.68C524.89 258.333 526.116 255.213 526.116 251.32V243.88L526.996 244.28C526.676 245.773 526.01 247.16 524.996 248.44C524.036 249.72 522.836 250.867 521.396 251.88C520.01 252.84 518.463 253.613 516.756 254.2C515.05 254.733 513.316 255 511.556 255C507.823 255 504.463 254.067 501.476 252.2C498.49 250.333 496.116 247.773 494.356 244.52C492.65 241.267 491.796 237.56 491.796 233.4C491.796 229.187 492.65 225.453 494.356 222.2C496.116 218.947 498.463 216.413 501.396 214.6C504.383 212.733 507.716 211.8 511.396 211.8ZM512.196 217.72C509.476 217.72 507.023 218.413 504.836 219.8C502.703 221.133 501.023 222.973 499.796 225.32C498.623 227.667 498.036 230.36 498.036 233.4C498.036 236.333 498.623 239 499.796 241.4C501.023 243.747 502.703 245.613 504.836 247C507.023 248.387 509.476 249.08 512.196 249.08C514.97 249.08 517.423 248.413 519.556 247.08C521.69 245.693 523.37 243.827 524.596 241.48C525.823 239.133 526.436 236.44 526.436 233.4C526.436 230.307 525.823 227.587 524.596 225.24C523.37 222.893 521.69 221.053 519.556 219.72C517.423 218.387 514.97 217.72 512.196 217.72Z" fill="black"/>
<path d="M478.976 195C479.882 195 480.629 195.32 481.216 195.96C481.856 196.547 482.176 197.293 482.176 198.2V250.92C482.176 251.827 481.856 252.6 481.216 253.24C480.629 253.88 479.882 254.2 478.976 254.2C478.016 254.2 477.242 253.88 476.656 253.24C476.069 252.6 475.776 251.827 475.776 250.92V243.32L477.296 242.76C477.296 244.04 476.896 245.4 476.096 246.84C475.296 248.227 474.202 249.533 472.816 250.76C471.429 251.987 469.776 253 467.856 253.8C465.989 254.6 463.962 255 461.776 255C458.202 255 454.949 254.067 452.016 252.2C449.136 250.333 446.842 247.773 445.136 244.52C443.482 241.267 442.656 237.56 442.656 233.4C442.656 229.187 443.482 225.453 445.136 222.2C446.842 218.947 449.136 216.413 452.016 214.6C454.896 212.733 458.096 211.8 461.616 211.8C463.856 211.8 465.962 212.173 467.936 212.92C469.909 213.667 471.616 214.68 473.056 215.96C474.549 217.24 475.722 218.653 476.576 220.2C477.429 221.747 477.856 223.293 477.856 224.84L475.776 224.36V198.2C475.776 197.293 476.069 196.547 476.656 195.96C477.242 195.32 478.016 195 478.976 195ZM462.496 249.08C465.162 249.08 467.509 248.413 469.536 247.08C471.616 245.693 473.216 243.827 474.336 241.48C475.509 239.08 476.096 236.387 476.096 233.4C476.096 230.36 475.509 227.667 474.336 225.32C473.216 222.973 471.616 221.133 469.536 219.8C467.509 218.413 465.162 217.72 462.496 217.72C459.882 217.72 457.536 218.413 455.456 219.8C453.429 221.133 451.829 222.973 450.656 225.32C449.482 227.667 448.896 230.36 448.896 233.4C448.896 236.333 449.482 239 450.656 241.4C451.829 243.747 453.429 245.613 455.456 247C457.536 248.387 459.882 249.08 462.496 249.08Z" fill="black"/>
<path d="M418.156 255C413.89 255 410.156 254.093 406.956 252.28C403.756 250.467 401.25 247.987 399.436 244.84C397.676 241.64 396.796 237.96 396.796 233.8C396.796 229.16 397.703 225.213 399.516 221.96C401.383 218.653 403.783 216.147 406.716 214.44C409.703 212.68 412.85 211.8 416.156 211.8C418.61 211.8 420.983 212.253 423.276 213.16C425.57 214.067 427.596 215.4 429.356 217.16C431.116 218.867 432.53 220.947 433.596 223.4C434.663 225.8 435.223 228.493 435.276 231.48C435.276 232.333 434.956 233.053 434.316 233.64C433.676 234.227 432.93 234.52 432.076 234.52H400.476L399.036 229H429.836L428.556 230.12V228.36C428.343 226.173 427.596 224.307 426.316 222.76C425.09 221.16 423.57 219.933 421.756 219.08C419.996 218.227 418.13 217.8 416.156 217.8C414.556 217.8 412.956 218.093 411.356 218.68C409.81 219.213 408.396 220.12 407.116 221.4C405.89 222.627 404.876 224.227 404.076 226.2C403.33 228.173 402.956 230.547 402.956 233.32C402.956 236.413 403.57 239.133 404.796 241.48C406.076 243.827 407.836 245.693 410.076 247.08C412.316 248.413 414.93 249.08 417.916 249.08C419.783 249.08 421.41 248.84 422.796 248.36C424.183 247.88 425.383 247.293 426.396 246.6C427.41 245.853 428.263 245.107 428.956 244.36C429.65 243.88 430.316 243.64 430.956 243.64C431.756 243.64 432.396 243.907 432.876 244.44C433.41 244.973 433.676 245.613 433.676 246.36C433.676 247.267 433.25 248.067 432.396 248.76C430.903 250.413 428.876 251.88 426.316 253.16C423.756 254.387 421.036 255 418.156 255Z" fill="black"/>
<path d="M387.404 250.92C387.404 251.827 387.084 252.6 386.444 253.24C385.804 253.88 385.031 254.2 384.124 254.2C383.218 254.2 382.471 253.88 381.884 253.24C381.298 252.6 381.004 251.827 381.004 250.92V198.2C381.004 197.293 381.298 196.547 381.884 195.96C382.524 195.32 383.298 195 384.204 195C385.164 195 385.938 195.32 386.524 195.96C387.111 196.547 387.404 197.293 387.404 198.2V250.92Z" fill="black"/>
<path d="M368.617 212.12C369.471 212.12 370.191 212.413 370.777 213C371.417 213.587 371.737 214.36 371.737 215.32C371.737 215.533 371.711 215.773 371.658 216.04C371.658 216.253 371.604 216.467 371.497 216.68L359.177 252.12C358.911 252.813 358.458 253.347 357.818 253.72C357.231 254.093 356.591 254.253 355.897 254.2C354.671 254.147 353.738 253.453 353.098 252.12L343.017 226.84L344.617 227.08L335.497 252.12C334.911 253.453 333.977 254.147 332.697 254.2C332.004 254.253 331.337 254.093 330.697 253.72C330.057 253.347 329.631 252.813 329.417 252.12L316.857 216.68C316.697 216.2 316.617 215.747 316.617 215.32C316.617 214.467 316.911 213.72 317.497 213.08C318.084 212.44 318.884 212.12 319.897 212.12C320.537 212.12 321.124 212.28 321.658 212.6C322.191 212.92 322.564 213.427 322.777 214.12L333.577 245.64L331.897 245.56L341.257 221.56C341.791 220.227 342.777 219.56 344.217 219.56C344.964 219.56 345.551 219.747 345.978 220.12C346.458 220.44 346.804 220.92 347.017 221.56L356.777 245.56L354.777 245.72L365.577 214.12C366.057 212.787 367.071 212.12 368.617 212.12Z" fill="black"/>
<path d="M310.191 233.4C310.191 237.56 309.258 241.267 307.391 244.52C305.578 247.773 303.098 250.333 299.951 252.2C296.858 254.067 293.365 255 289.471 255C285.578 255 282.058 254.067 278.911 252.2C275.765 250.333 273.258 247.773 271.391 244.52C269.578 241.267 268.671 237.56 268.671 233.4C268.671 229.24 269.578 225.533 271.391 222.28C273.258 219.027 275.765 216.467 278.911 214.6C282.058 212.733 285.578 211.8 289.471 211.8C293.365 211.8 296.858 212.733 299.951 214.6C303.098 216.467 305.578 219.027 307.391 222.28C309.258 225.533 310.191 229.24 310.191 233.4ZM303.791 233.4C303.791 230.307 303.151 227.587 301.871 225.24C300.645 222.893 298.938 221.053 296.751 219.72C294.618 218.387 292.191 217.72 289.471 217.72C286.751 217.72 284.298 218.387 282.111 219.72C279.978 221.053 278.271 222.893 276.991 225.24C275.711 227.587 275.071 230.307 275.071 233.4C275.071 236.44 275.711 239.133 276.991 241.48C278.271 243.827 279.978 245.693 282.111 247.08C284.298 248.413 286.751 249.08 289.471 249.08C292.191 249.08 294.618 248.413 296.751 247.08C298.938 245.693 300.645 243.827 301.871 241.48C303.151 239.133 303.791 236.44 303.791 233.4Z" fill="black"/>
<path d="M244.753 211.8C248.379 211.8 251.233 212.547 253.313 214.04C255.393 215.533 256.859 217.533 257.713 220.04C258.619 222.547 259.073 225.347 259.073 228.44V250.92C259.073 251.827 258.753 252.6 258.113 253.24C257.526 253.88 256.779 254.2 255.873 254.2C254.966 254.2 254.193 253.88 253.553 253.24C252.966 252.6 252.673 251.827 252.673 250.92V228.6C252.673 226.573 252.353 224.76 251.713 223.16C251.126 221.507 250.113 220.2 248.673 219.24C247.286 218.227 245.366 217.72 242.913 217.72C240.673 217.72 238.619 218.227 236.753 219.24C234.886 220.2 233.393 221.507 232.273 223.16C231.153 224.76 230.593 226.573 230.593 228.6V250.92C230.593 251.827 230.273 252.6 229.633 253.24C229.046 253.88 228.299 254.2 227.393 254.2C226.486 254.2 225.713 253.88 225.073 253.24C224.486 252.6 224.193 251.827 224.193 250.92V216.04C224.193 215.133 224.486 214.387 225.073 213.8C225.713 213.16 226.486 212.84 227.393 212.84C228.353 212.84 229.126 213.16 229.713 213.8C230.299 214.387 230.593 215.133 230.593 216.04V221.72L228.993 223.48C229.259 222.093 229.873 220.707 230.833 219.32C231.793 217.88 232.993 216.6 234.433 215.48C235.873 214.36 237.473 213.48 239.233 212.84C240.993 212.147 242.833 211.8 244.753 211.8Z" fill="black"/>
<path d="M184.283 254.2C183.323 254.2 182.549 253.88 181.963 253.24C181.376 252.6 181.083 251.827 181.083 250.92V198.2C181.083 197.293 181.376 196.547 181.963 195.96C182.549 195.32 183.323 195 184.283 195C185.189 195 185.936 195.32 186.523 195.96C187.163 196.547 187.483 197.293 187.483 198.2V250.92C187.483 251.827 187.163 252.6 186.523 253.24C185.936 253.88 185.189 254.2 184.283 254.2ZM210.843 212.6C211.696 212.6 212.416 212.947 213.003 213.64C213.643 214.28 213.963 214.947 213.963 215.64C213.963 216.547 213.536 217.347 212.683 218.04L186.763 240.68L186.523 233.24L208.603 213.56C209.243 212.92 209.989 212.6 210.843 212.6ZM211.723 254.12C210.816 254.12 210.016 253.773 209.323 253.08L192.283 234.92L197.083 230.52L213.963 248.6C214.603 249.293 214.923 250.093 214.923 251C214.923 251.96 214.549 252.733 213.803 253.32C213.056 253.853 212.363 254.12 211.723 254.12Z" fill="black"/>
<path d="M170.816 233.4C170.816 237.56 169.883 241.267 168.016 244.52C166.203 247.773 163.723 250.333 160.576 252.2C157.483 254.067 153.99 255 150.096 255C146.203 255 142.683 254.067 139.536 252.2C136.39 250.333 133.883 247.773 132.016 244.52C130.203 241.267 129.296 237.56 129.296 233.4C129.296 229.24 130.203 225.533 132.016 222.28C133.883 219.027 136.39 216.467 139.536 214.6C142.683 212.733 146.203 211.8 150.096 211.8C153.99 211.8 157.483 212.733 160.576 214.6C163.723 216.467 166.203 219.027 168.016 222.28C169.883 225.533 170.816 229.24 170.816 233.4ZM164.416 233.4C164.416 230.307 163.776 227.587 162.496 225.24C161.27 222.893 159.563 221.053 157.376 219.72C155.243 218.387 152.816 217.72 150.096 217.72C147.376 217.72 144.923 218.387 142.736 219.72C140.603 221.053 138.896 222.893 137.616 225.24C136.336 227.587 135.696 230.307 135.696 233.4C135.696 236.44 136.336 239.133 137.616 241.48C138.896 243.827 140.603 245.693 142.736 247.08C144.923 248.413 147.376 249.08 150.096 249.08C152.816 249.08 155.243 248.413 157.376 247.08C159.563 245.693 161.27 243.827 162.496 241.48C163.776 239.133 164.416 236.44 164.416 233.4Z" fill="black"/>
<path d="M105.599 212.2C109.119 212.2 111.892 212.973 113.919 214.52C115.999 216.013 117.465 218.04 118.319 220.6C119.225 223.107 119.679 225.907 119.679 229V250.92C119.679 251.827 119.359 252.6 118.719 253.24C118.132 253.88 117.385 254.2 116.479 254.2C115.572 254.2 114.799 253.88 114.159 253.24C113.572 252.6 113.279 251.827 113.279 250.92V229C113.279 226.973 112.985 225.16 112.399 223.56C111.812 221.907 110.825 220.6 109.439 219.64C108.105 218.627 106.265 218.12 103.919 218.12C101.732 218.12 99.7321 218.627 97.9187 219.64C96.1054 220.6 94.6654 221.907 93.5987 223.56C92.5321 225.16 91.9987 226.973 91.9987 229V250.92C91.9987 251.827 91.6788 252.6 91.0387 253.24C90.4521 253.88 89.7054 254.2 88.7988 254.2C87.8921 254.2 87.1188 253.88 86.4788 253.24C85.8921 252.6 85.5987 251.827 85.5987 250.92V198.2C85.5987 197.293 85.8921 196.547 86.4788 195.96C87.1188 195.32 87.8921 195 88.7988 195C89.7588 195 90.5321 195.32 91.1188 195.96C91.7054 196.547 91.9987 197.293 91.9987 198.2V222.12L90.3988 223.88C90.6654 222.493 91.2521 221.107 92.1588 219.72C93.0654 218.28 94.2121 217 95.5987 215.88C96.9854 214.76 98.5321 213.88 100.239 213.24C101.945 212.547 103.732 212.2 105.599 212.2Z" fill="black"/>
<path d="M62.5144 211.8C65.2344 211.8 67.6877 212.093 69.8744 212.68C72.061 213.267 73.7944 214.067 75.0744 215.08C76.3544 216.093 76.9944 217.24 76.9944 218.52C76.9944 219.213 76.7544 219.88 76.2744 220.52C75.7944 221.16 75.1544 221.48 74.3544 221.48C73.6077 221.48 72.9944 221.347 72.5144 221.08C72.0877 220.813 71.661 220.467 71.2344 220.04C70.861 219.613 70.3277 219.24 69.6344 218.92C68.9944 218.547 68.061 218.253 66.8344 218.04C65.6077 217.827 64.381 217.72 63.1544 217.72C60.221 217.72 57.6344 218.413 55.3944 219.8C53.2077 221.187 51.4744 223.053 50.1944 225.4C48.9144 227.747 48.2744 230.413 48.2744 233.4C48.2744 236.387 48.8877 239.053 50.1144 241.4C51.341 243.747 53.0477 245.613 55.2344 247C57.421 248.387 59.9544 249.08 62.8344 249.08C64.701 249.08 66.1944 248.92 67.3144 248.6C68.4344 248.28 69.3677 247.907 70.1144 247.48C71.0744 246.947 71.7944 246.413 72.2744 245.88C72.8077 245.347 73.501 245.08 74.3544 245.08C75.261 245.08 75.9544 245.373 76.4344 245.96C76.9677 246.547 77.2344 247.267 77.2344 248.12C77.2344 249.08 76.5677 250.093 75.2344 251.16C73.901 252.227 72.0877 253.133 69.7944 253.88C67.5544 254.627 64.9944 255 62.1144 255C58.061 255 54.5144 254.067 51.4744 252.2C48.4344 250.28 46.061 247.693 44.3544 244.44C42.701 241.133 41.8744 237.453 41.8744 233.4C41.8744 229.347 42.7277 225.693 44.4344 222.44C46.1944 219.187 48.621 216.6 51.7144 214.68C54.8077 212.76 58.4077 211.8 62.5144 211.8Z" fill="black"/>
<path d="M3.2 198.2H31.68C32.5867 198.2 33.36 198.493 34 199.08C34.64 199.667 34.96 200.413 34.96 201.32C34.96 202.227 34.64 202.973 34 203.56C33.36 204.093 32.5867 204.36 31.68 204.36H5.92L6.64 203V223.24L5.84 222.36H28.08C28.9867 222.36 29.76 222.653 30.4 223.24C31.04 223.827 31.36 224.573 31.36 225.48C31.36 226.387 31.04 227.133 30.4 227.72C29.76 228.253 28.9867 228.52 28.08 228.52H6.08L6.64 227.8V248.52L6.16 247.96H31.68C32.5867 247.96 33.36 248.28 34 248.92C34.64 249.56 34.96 250.28 34.96 251.08C34.96 251.987 34.64 252.733 34 253.32C33.36 253.907 32.5867 254.2 31.68 254.2H3.2C2.29333 254.2 1.52 253.88 0.88 253.24C0.293333 252.6 0 251.827 0 250.92V201.4C0 200.493 0.293333 199.747 0.88 199.16C1.52 198.52 2.29333 198.2 3.2 198.2Z" fill="black"/>
<circle cx="71.5" cy="70.5" r="12.5" fill="#152E46"/>
<circle cx="146.5" cy="70.5" r="12.5" fill="#152E46"/>
<path d="M146 0C183.003 0 213 29.9969 213 67V106C213 143.003 183.003 173 146 173H67C61.1729 173 55.5197 172.255 50.1299 170.857C49.35 171.608 48.38 172.266 47.1807 172.767L13.6611 186.764C7.40767 189.375 0.507305 184.788 0.498047 178.009C0.467899 155.938 0.103314 130.378 0.0175781 107.533C0.00613361 107.024 8.922e-10 106.512 0 106V67C6.44344e-08 29.9969 29.9969 1.27241e-06 67 0H146ZM67 18C39.938 18 18 39.938 18 67V106C18 133.062 39.938 155 67 155H146C173.062 155 195 133.062 195 106V67C195 39.938 173.062 18 146 18H67Z" fill="#4BA4F9"/>
<path d="M247.297 152.037C250.549 154.049 254.702 152.819 256.375 149.178C265.156 130.072 269.772 108.982 269.822 87.5529C269.872 66.1238 265.355 45.0086 256.664 25.8537C255.008 22.2038 250.861 20.9507 247.6 22.9444C244.338 24.938 243.199 29.4227 244.834 33.084C252.394 50.0138 256.32 68.6282 256.276 87.5153C256.232 106.402 252.218 124.995 244.579 141.882C242.927 145.535 244.045 150.026 247.297 152.037Z" fill="#152E46"/>
<path d="M268.206 168.369C271.182 170.964 275.524 170.425 277.723 167.02C293.153 143.12 301.518 114.5 301.577 85.0696C301.635 55.6391 293.383 26.9795 278.049 3.00556C275.864 -0.410059 271.524 -0.969605 268.537 1.61025C265.55 4.19011 265.05 8.93115 267.215 12.3619C280.65 33.6507 287.873 59.0062 287.822 85.0366C287.77 111.067 280.446 136.388 266.927 157.612C264.748 161.032 265.229 165.775 268.206 168.369Z" fill="#152E46"/>
<path d="M81.3747 107.659C79.5859 110.11 80.1102 113.575 82.7372 115.093C90.5692 119.618 99.486 122.017 108.596 122C117.705 121.983 126.613 119.551 134.428 114.997C137.05 113.47 137.561 110.002 135.763 107.558C133.965 105.115 130.54 104.628 127.876 106.079C121.978 109.291 115.348 111 108.575 111.013C101.803 111.026 95.1658 109.341 89.2565 106.151C86.5867 104.71 83.1636 105.209 81.3747 107.659Z" fill="#152E46"/>
</svg>
